<svg width="24" height="24" viewBox="0 0 24 24" fill="none" xmlns="http://www.w3.org/2000/svg">
<path fill-rule="evenodd" clip-rule="evenodd" d="M12 22.7789C17.953 22.7789 22.7789 17.953 22.7789 12C22.7789 6.04695 17.953 1.22105 12 1.22105C6.04695 1.22105 1.22105 6.04695 1.22105 12C1.22105 17.953 6.04695 22.7789 12 22.7789ZM12 24C18.6274 24 24 18.6274 24 12C24 5.37258 18.6274 0 12 0C5.37258 0 0 5.37258 0 12C0 18.6274 5.37258 24 12 24Z" fill="#333333"/>
<path fill-rule="evenodd" clip-rule="evenodd" d="M13.0741 5.83874L18.1653 11.024C18.4777 11.3422 18.4777 11.858 18.1653 12.1762L13.0741 17.3615C12.7617 17.6796 12.2552 17.6796 11.9428 17.3615C11.6303 17.0433 11.6303 16.5274 11.9428 16.2092L15.6682 12.4149H5.59961V10.7853H15.6682L11.9428 6.99101C11.6303 6.67282 11.6303 6.15693 11.9428 5.83874C12.2552 5.52055 12.7617 5.52055 13.0741 5.83874Z" fill="#333333"/>
</svg>
